<svg xmlns="http://www.w3.org/2000/svg" viewBox="0 0 432 432"><defs><style>.a{fill:#25438a;}.b{fill:#eee;}</style></defs><path class="a" d="M368.13666,152.08707c-9.01495-6.272-23.97372-25.46352-22.85179-57.61219C348.37089,5.96541,297.66561.25644,295.506.057a13.04137,13.04137,0,0,0-14.01356,10.58037L222.57475,325.26322c-.643-.72468-1.28087-1.45105-1.958-2.16374-14.47568-15.2394-35.27353-26.0345-58.56141-30.396-23.28639-4.35556-46.5813-1.8219-65.59235,7.14774-20.43392,9.6421-33.66056,25.48374-37.24117,44.60824-3.58071,19.12618,3.01665,38.68032,18.57785,55.06242,14.47569,15.2394,35.27353,26.0345,58.55992,30.396A120.80474,120.80474,0,0,0,158.52761,432a101.95839,101.95839,0,0,0,43.42433-9.22837c20.43392-9.6419,33.66056-25.48373,37.24267-44.60972l64.722-345.62257c7.79418,7.77994,16.58139,24.64785,15.31213,61.02721-1.4137,40.53985,17.44375,68.39007,34.02111,79.92276a13.03526,13.03526,0,1,0,14.88679-21.40224Z"/><path class="b" d="M135.615,325.70263a16.34992,16.34992,0,1,1-32.69362.58434c-.16263-9.09907,7.24619-4.18855,16.27429-4.34991S135.45237,316.60355,135.615,325.70263Z"/><path class="b" d="M176.50126,408.78533c-1.01853,5.44336-4.64942-19.20556-31.616-24.25139s-39.26415,16.62265-38.24562,11.17929,16.7733-19.90355,39.09648-15.72656S177.51979,403.342,176.50126,408.78533Z"/><path class="a" d="M124.48771,337.39243c1.15191-6.15615-.76394-11.6799-4.27917-12.33765s-7.29867,3.79958-8.45057,9.95573S123.33581,343.54858,124.48771,337.39243Z"/><path class="b" d="M174.79984,333.03467a16.34993,16.34993,0,1,0,30.27047,12.36581c3.44157-8.42469-5.2415-6.52518-13.60046-9.9399S178.24142,324.61,174.79984,333.03467Z"/><path class="a" d="M180.94765,347.95688c1.1519-6.15615,4.93535-10.61349,8.45058-9.95574s5.43107,6.1815,4.27917,12.33764S179.79575,354.113,180.94765,347.95688Z"/></svg>