<svg xmlns="http://www.w3.org/2000/svg" viewBox="0 0 432 432"><defs><style>.a{fill:#25438a;}.b{fill:#23366d;}.c{fill:#142349;}.d{fill:#eee;}</style></defs><path class="a" d="M28.93857,121.25273V310.74727a22.95435,22.95435,0,0,0,11.47717,19.87905l164.10709,94.74727a22.95433,22.95433,0,0,0,22.95434,0l164.10709-94.74727a22.95435,22.95435,0,0,0,11.47717-19.87905V121.25273a22.95435,22.95435,0,0,0-11.47717-19.87905L227.47717,6.62641a22.95433,22.95433,0,0,0-22.95434,0L40.41574,101.37368A22.95435,22.95435,0,0,0,28.93857,121.25273Z"/><path class="b" d="M216,215.99994,399.98615,322.22443a22.93982,22.93982,0,0,0,3.07531-11.47718V121.25269a22.94015,22.94015,0,0,0-3.07531-11.47718Z"/><path class="c" d="M32.01385,322.22443a22.94013,22.94013,0,0,0,8.40186,8.40185L204.52283,425.3736a22.95433,22.95433,0,0,0,22.95434,0l164.10712-94.74732a22.94013,22.94013,0,0,0,8.40186-8.40185L216,215.99994Z"/><path class="d" d="M323.64871,210.25879h14.91113v10.78027H323.64871V237.8916h-11.3584V221.03906H297.33816V210.25879h14.95215V194.1084h11.3584Z"/><path class="d" d="M373.21121,210.25879h14.91113v10.78027H373.21121V237.8916h-11.3584V221.03906H346.90066V210.25879h14.95215V194.1084h11.3584Z"/><path class="d" d="M233.30979,44.65888c-15.85507-.33932-34.39795,30.86877-33.78151,58.70075.14315,8.477,3.389,25.66938,8.12473,47.26162-29.86667,25.48154-64.548,51.63258-64.548,85.94512-.47621,31.44433,22.8375,71.50533,78.1506,71.12a109.61425,109.61425,0,0,0,22.91639-2.40824c5.05714,22.85415,8.41981,40.89183,8.39936,49.22434.17822,32.84834-52.17831,36.09947-54.6879,17.21887,11.03458-.31308,19.81374-7.53779,19.81374-16.47232,0-9.1272-9.16772-16.56865-20.54412-16.56865-6.84539,0-18.972,6.84932-18.972,22.45276,0,26.21323,81.2383,46.01337,81.2383-8.2201.13146-7.297-3.67527-25.81629-9.22031-49.1521,60.19205-17.94135,45.07026-91.60928-10.31587-91.95606a63.09585,63.09585,0,0,0-12.41646,1.28117c-3.15524-12.51559-6.19946-24.66273-8.858-35.82491,21.032-17.02863,39.39667-39.07121,38.98473-79.69573C257.65772,68.392,245.86647,44.99844,233.30979,44.65888ZM237.05225,72.881c7.17525-.57076,12.87221,4.92,12.87221,17.007.58139,20.759-17.06166,38.88819-38.07029,57.12094-2.01-9.987-3.32761-18.07863-3.47076-22.87824C208.97939,91.70136,225.09156,73.83225,237.05225,72.881ZM214.50106,180.49782c2.56217,10.87318,5.32885,22.32916,8.12473,33.867-36.6592,10.75036-54.25258,52.87041-2.2817,71.71966-31.678-22.23043-16.08588-48.5452,6.75455-53.1305,5.74371,23.63924,11.353,46.96541,15.88722,67.12235a79.63365,79.63365,0,0,1-21.73025,2.8658c-20.97942,0-62.9032-11.00563-62.9032-52.68015C158.35241,215.357,187.70489,201.1725,214.50106,180.49782Zm17.80373,51.70241c.91444-.04575,1.90483-.02649,2.828,0,38.16379,0,52.55811,49.95885,13.69607,65.92545C243.99378,278.08916,238.1303,255.11459,232.30479,232.20023Z"/></svg>